<?xml version="1.0" encoding="UTF-8" standalone="no"?>
<!-- Generator: Adobe Illustrator 11.0, SVG Export Plug-In  -->
<svg
   xmlns:dc="http://purl.org/dc/elements/1.1/"
   xmlns:cc="http://web.resource.org/cc/"
   xmlns:rdf="http://www.w3.org/1999/02/22-rdf-syntax-ns#"
   xmlns:svg="http://www.w3.org/2000/svg"
   xmlns="http://www.w3.org/2000/svg"
   xmlns:sodipodi="http://sodipodi.sourceforge.net/DTD/sodipodi-0.dtd"
   xmlns:inkscape="http://www.inkscape.org/namespaces/inkscape"
   width="280"
   height="280"
   viewBox="-0.7 -0.596 512 438"
   xml:space="preserve"
   id="svg2"
   sodipodi:version="0.32"
   inkscape:version="0.45.1"
   sodipodi:docname="command key.svg"
   inkscape:output_extension="org.inkscape.output.svg.inkscape"
   sodipodi:docbase="C:\esteban"
   version="1.0"><metadata
   id="metadata29"><rdf:RDF><cc:Work
       rdf:about=""><dc:format>image/svg+xml</dc:format><dc:type
         rdf:resource="http://purl.org/dc/dcmitype/StillImage" /></cc:Work></rdf:RDF></metadata><sodipodi:namedview
   inkscape:window-height="579"
   inkscape:window-width="813"
   inkscape:pageshadow="2"
   inkscape:pageopacity="0.0"
   guidetolerance="10.0"
   gridtolerance="10.0"
   objecttolerance="10.0"
   borderopacity="1.0"
   bordercolor="#666666"
   pagecolor="#ffffff"
   id="base"
   inkscape:zoom="0.8630137"
   inkscape:cx="256"
   inkscape:cy="158.18021"
   inkscape:window-x="110"
   inkscape:window-y="138"
   inkscape:current-layer="svg2"
   width="280px"
   height="280px" />
	<defs
   id="defs4">
	</defs>
	
<g
   transform="matrix(1.8285714,0,0,1.8285714,-212.58557,-182.82775)"
   id="g2202">
		 
		
		
		<rect
   x="123.66"
   y="86.795998"
   width="263.16"
   height="263.16"
   id="rect2204"
   style="fill:#ffffff" /> 
		<path
   d="M 324.036,198.828 L 300.852,198.828 L 300.852,237.564 L 324.036,237.564 C 351.468,237.564 373.572,259.668 373.572,286.956 C 373.572,314.46 351.468,336.492 324.036,336.492 C 296.676,336.492 274.572,314.46 274.572,286.956 L 274.572,286.956 L 274.572,263.844 L 235.98,263.844 L 235.98,286.956 C 235.98,314.46 213.804,336.492 186.516,336.492 C 159.084,336.492 136.908,314.46 136.908,286.956 C 136.908,259.668 159.084,237.564 186.516,237.564 L 186.516,237.564 L 209.7,237.564 L 209.7,198.828 L 186.516,198.828 C 159.228,199.044 136.908,176.724 136.908,149.292 C 136.908,122.004 159.084,99.828 186.516,99.828 C 213.804,99.828 235.98,122.004 235.98,149.292 L 235.98,172.62 L 274.572,172.62 L 274.572,149.292 C 274.428,122.004 296.676,99.828 324.036,99.828 C 351.468,99.828 373.572,122.004 373.572,149.292 C 373.572,176.724 351.468,198.828 324.036,198.828 z "
   id="path2206" />
		<rect
   x="235.98"
   y="198.89999"
   width="38.664001"
   height="38.664001"
   id="rect2208"
   style="fill:#ffffff" /> 
		<path
   d="M 209.7,149.22 C 209.7,136.476 199.332,126.108 186.588,126.108 C 173.628,126.108 163.26,136.476 163.26,149.22 C 163.26,162.18 173.628,172.548 186.588,172.548 L 186.588,172.548 L 209.7,172.548 L 209.7,149.22 z "
   id="path2210"
   style="fill:#ffffff" />
		<path
   d="M 209.7,286.956 L 209.7,263.844 L 186.588,263.844 L 186.588,263.844 C 173.628,263.844 163.26,274.212 163.26,286.956 C 163.26,299.916 173.628,310.284 186.588,310.284 C 199.332,310.284 209.7,299.916 209.7,286.956 z "
   id="path2212"
   style="fill:#ffffff" />
		<path
   d="M 300.852,286.956 L 300.852,286.956 C 300.852,299.916 311.22,310.284 323.964,310.284 C 336.924,310.284 347.292,299.916 347.292,286.956 C 347.292,274.212 336.924,263.844 323.964,263.844 L 300.852,263.844 L 300.852,286.956 z "
   id="path2214"
   style="fill:#ffffff" />
		<path
   d="M 300.852,172.548 L 300.852,149.22 C 300.852,136.476 311.22,126.108 323.964,126.108 C 336.924,126.108 347.292,136.476 347.292,149.22 C 347.292,162.18 336.924,172.548 323.964,172.548 L 300.852,172.548 z "
   id="path2216"
   style="fill:#ffffff" />
	</g></svg>