<svg xmlns="http://www.w3.org/2000/svg" viewBox="0 0 600 1000"><path d="M600 515q0 128-88.5 214.5T298 816q-127 0-212.5-87.5T0 516q0-91 50-167 6 20 12 47-22 44-22 120 0 111 72.5 185T298 775t186.5-75T558 515q0-111-73.5-185T299 256q-69 0-118 26-21-4-49-15 76-52 167-52 126 0 213.5 87.5T600 515zM476 666q6 5 6 12 0 8-7 14.5t-15 6.5q-7 0-12-5L226 471l-89 88q-9 9-18 9-7 0-11.5-5.5T103 548q0-3 1-6 6-51 6-82 0-48-14.5-95.5T81 313q0-7 4-11t11-4q4 0 51.5 14.5T242 327q25 0 53-3t33-3q12 0 18 5 5 5 5 11 0 9-9 18l-88 88zM273 367q-15 1-30 1-53 0-109-16 17 57 17 113 0 12-1 25z"/></svg>