<!--Generated with <https://danmarshall.github.io/google-font-to-svg-path/> and the ⌘ symbol from Inconsolata-->
<svg width="45.201" height="45.102" viewBox="0 0 45.201 45.102"
   xmlns="http://www.w3.org/2000/svg">
   <g id="svgGroup" stroke-linecap="round" fill-rule="evenodd" font-size="9pt" stroke="#48bb78" stroke-width="0.25mm" fill="#48bb78" style="stroke:#48bb78;stroke-width:0.25mm;fill:#48bb78">
      <path d="M 9.301 26.601 L 14.501 26.601 L 14.501 18.501 L 9.301 18.501 Q 6.801 18.501 4.651 17.251 Q 2.501 16.001 1.251 13.901 Q 0.001 11.801 0.001 9.301 A 8.928 8.928 0 0 1 2.665 2.837 A 11.174 11.174 0 0 1 2.751 2.751 A 9.269 9.269 0 0 1 6.17 0.53 A 9.148 9.148 0 0 1 9.301 0.001 A 8.763 8.763 0 0 1 15.695 2.644 A 10.859 10.859 0 0 1 15.801 2.751 A 9.189 9.189 0 0 1 18.121 6.598 A 9.437 9.437 0 0 1 18.501 9.301 L 18.501 14.501 L 26.701 14.501 L 26.701 9.301 A 9.023 9.023 0 0 1 29.38 2.772 A 11.142 11.142 0 0 1 29.401 2.751 A 9.003 9.003 0 0 1 32.942 0.472 A 9.118 9.118 0 0 1 35.901 0.001 A 8.928 8.928 0 0 1 42.364 2.666 A 11.174 11.174 0 0 1 42.451 2.751 A 9.269 9.269 0 0 1 44.672 6.17 A 9.148 9.148 0 0 1 45.201 9.301 Q 45.201 11.801 43.951 13.901 Q 42.701 16.001 40.601 17.251 A 8.943 8.943 0 0 1 36.224 18.496 A 10.626 10.626 0 0 1 35.901 18.501 L 30.701 18.501 L 30.701 26.601 L 35.901 26.601 A 9.301 9.301 0 0 1 39.239 27.192 A 8.738 8.738 0 0 1 40.601 27.851 Q 42.701 29.101 43.951 31.151 Q 45.201 33.201 45.201 35.801 A 8.928 8.928 0 0 1 42.536 42.265 A 11.174 11.174 0 0 1 42.451 42.351 A 9.269 9.269 0 0 1 39.031 44.572 A 9.148 9.148 0 0 1 35.901 45.101 A 8.763 8.763 0 0 1 29.506 42.457 A 10.859 10.859 0 0 1 29.401 42.351 A 9.189 9.189 0 0 1 27.08 38.503 A 9.437 9.437 0 0 1 26.701 35.801 L 26.701 30.601 L 18.501 30.601 L 18.501 35.801 A 9.023 9.023 0 0 1 15.822 42.329 A 11.142 11.142 0 0 1 15.801 42.351 A 9.003 9.003 0 0 1 12.259 44.629 A 9.118 9.118 0 0 1 9.301 45.101 A 8.928 8.928 0 0 1 2.837 42.436 A 11.174 11.174 0 0 1 2.751 42.351 A 9.269 9.269 0 0 1 0.529 38.931 A 9.148 9.148 0 0 1 0.001 35.801 A 9.241 9.241 0 0 1 0.465 32.836 A 8.326 8.326 0 0 1 1.251 31.151 Q 2.501 29.101 4.651 27.851 Q 6.801 26.601 9.301 26.601 Z M 30.701 9.301 L 30.701 14.501 L 35.901 14.501 Q 37.401 14.501 38.601 13.801 Q 39.801 13.101 40.501 11.901 Q 41.201 10.701 41.201 9.301 Q 41.201 7.801 40.501 6.601 Q 39.801 5.401 38.601 4.701 A 5.178 5.178 0 0 0 36.225 4.009 A 6.227 6.227 0 0 0 35.901 4.001 Q 34.501 4.001 33.301 4.701 Q 32.101 5.401 31.401 6.601 A 5.178 5.178 0 0 0 30.709 8.976 A 6.227 6.227 0 0 0 30.701 9.301 Z M 35.901 30.601 L 30.701 30.601 L 30.701 35.801 Q 30.701 37.201 31.401 38.451 Q 32.101 39.701 33.301 40.401 Q 34.501 41.101 35.901 41.101 Q 37.401 41.101 38.601 40.401 Q 39.801 39.701 40.501 38.451 Q 41.201 37.201 41.201 35.801 A 5.458 5.458 0 0 0 40.997 34.285 A 4.639 4.639 0 0 0 40.501 33.151 Q 39.801 32.001 38.601 31.301 A 5.178 5.178 0 0 0 36.225 30.609 A 6.227 6.227 0 0 0 35.901 30.601 Z M 9.301 14.501 L 14.501 14.501 L 14.501 9.301 Q 14.501 7.801 13.801 6.601 Q 13.101 5.401 11.951 4.701 Q 10.801 4.001 9.301 4.001 Q 7.901 4.001 6.651 4.701 Q 5.401 5.401 4.701 6.601 A 5.178 5.178 0 0 0 4.009 8.976 A 6.227 6.227 0 0 0 4.001 9.301 Q 4.001 10.701 4.701 11.901 Q 5.401 13.101 6.651 13.801 Q 7.901 14.501 9.301 14.501 Z M 14.501 35.801 L 14.501 30.601 L 9.301 30.601 Q 7.901 30.601 6.651 31.301 A 5.355 5.355 0 0 0 5.139 32.538 A 5.042 5.042 0 0 0 4.701 33.151 Q 4.001 34.301 4.001 35.801 Q 4.001 37.201 4.701 38.451 Q 5.401 39.701 6.651 40.401 Q 7.901 41.101 9.301 41.101 A 5.458 5.458 0 0 0 10.816 40.897 A 4.639 4.639 0 0 0 11.951 40.401 A 5.171 5.171 0 0 0 13.711 38.605 A 6.104 6.104 0 0 0 13.801 38.451 Q 14.501 37.201 14.501 35.801 Z M 18.501 18.501 L 18.501 26.601 L 26.701 26.601 L 26.701 18.501 L 18.501 18.501 Z" vector-effect="non-scaling-stroke"/>
   </g>
</svg>