<?xml version="1.0" encoding="UTF-8" standalone="no"?>
<svg
   xmlns:dc="http://purl.org/dc/elements/1.1/"
   xmlns:cc="http://creativecommons.org/ns#"
   xmlns:rdf="http://www.w3.org/1999/02/22-rdf-syntax-ns#"
   xmlns:svg="http://www.w3.org/2000/svg"
   xmlns="http://www.w3.org/2000/svg"
   xmlns:sodipodi="http://sodipodi.sourceforge.net/DTD/sodipodi-0.dtd"
   xmlns:inkscape="http://www.inkscape.org/namespaces/inkscape"
   inkscape:version="1.0 (4035a4f, 2020-05-01)"
   sodipodi:docname="up_key_2712617_clean.svg"
   id="svg22"
   version="1.1"
   y="0px"
   x="0px"
   viewBox="0 0 64 80">
  <metadata
     id="metadata28">
    <rdf:RDF>
      <cc:Work
         rdf:about="">
        <dc:format>image/svg+xml</dc:format>
        <dc:type
           rdf:resource="http://purl.org/dc/dcmitype/StillImage" />
      </cc:Work>
    </rdf:RDF>
  </metadata>
  <defs
     id="defs26" />
  <sodipodi:namedview
     inkscape:current-layer="svg22"
     inkscape:window-maximized="0"
     inkscape:window-y="23"
     inkscape:window-x="0"
     inkscape:cy="63.414634"
     inkscape:cx="32"
     inkscape:zoom="10.25"
     showgrid="false"
     id="namedview24"
     inkscape:window-height="878"
     inkscape:window-width="1717"
     inkscape:pageshadow="2"
     inkscape:pageopacity="0"
     guidetolerance="10"
     gridtolerance="10"
     objecttolerance="10"
     borderopacity="1"
     bordercolor="#666666"
     pagecolor="#ffffff" />
  <title
     id="title10">Capital, capslock, increase, up, interface icon</title>
  <g
     id="g16"
     data-name="Layer 1">
    <path
       id="path12"
       d="M43,32h7.44a3.56,3.56,0,0,0,2.67-5.9L34.69,5a3.56,3.56,0,0,0-5.37,0L10.89,26.09A3.56,3.56,0,0,0,13.56,32H21V43a2,2,0,0,0,2,2H41a2,2,0,0,0,2-2Zm-4,9H25V30a2,2,0,0,0-2-2H14.54L32,8,49.46,28H41a2,2,0,0,0-2,2Z" />
    <path
       id="path14"
       d="M41,49H23a2,2,0,0,0-2,2v7a2,2,0,0,0,2,2H41a2,2,0,0,0,2-2V51A2,2,0,0,0,41,49Zm-2,7H25V53H39Z" />
  </g>
</svg>
